<svg xmlns="http://www.w3.org/2000/svg" width="24" height="24" viewBox="0 0 24 24">
  <g id="Сгруппировать_224" data-name="Сгруппировать 224" transform="translate(-1225 -1449)">
    <g id="Эллипс_2" data-name="Эллипс 2" transform="translate(1225 1449)" fill="none" stroke="#333" stroke-width="2">
      <circle cx="12" cy="12" r="12" stroke="none"/>
      <circle cx="12" cy="12" r="11" fill="none"/>
    </g>
    <path id="Контур_150" data-name="Контур 150" d="M3.284-2.818a14.875,14.875,0,0,0-2.2.632A6.253,6.253,0,0,0-.258-1.5a2.177,2.177,0,0,0-.667.688,1.353,1.353,0,0,0-.182.636A1.253,1.253,0,0,0-.966.379a1.415,1.415,0,0,0,.5.527A3.1,3.1,0,0,0,.5,1.3a6.494,6.494,0,0,0,1.557.155,11.538,11.538,0,0,0,1.444-.1,13.28,13.28,0,0,0,1.589-.306V2.76a14.5,14.5,0,0,1-1.6.306,11.523,11.523,0,0,1-1.476.1A8.585,8.585,0,0,1-.133,2.925a4.5,4.5,0,0,1-1.508-.668,2.8,2.8,0,0,1-.894-1.024,2.884,2.884,0,0,1-.3-1.3,2.908,2.908,0,0,1,.425-1.571A4.119,4.119,0,0,1-1.261-2.831a4.026,4.026,0,0,1-.712-.988A2.56,2.56,0,0,1-2.248-5a2.31,2.31,0,0,1,.315-1.2A2.874,2.874,0,0,1-1.071-7.1a4.273,4.273,0,0,1,1.266-.58,5.609,5.609,0,0,1,1.537-.2q.218,0,.453.016t.469.049v1.732q-.275-.026-.59-.049t-.615-.023a4.6,4.6,0,0,0-.724.056,2.123,2.123,0,0,0-.631.2,1.2,1.2,0,0,0-.449.385,1.046,1.046,0,0,0-.17.612,1.815,1.815,0,0,0,.15.7A1.686,1.686,0,0,0,.1-3.575,12.717,12.717,0,0,1,1.63-4.118q.8-.227,1.654-.405Z" transform="translate(1235.83 1462.894)" fill="#333"/>
  </g>
</svg>
