<svg id="Сгруппировать_9" data-name="Сгруппировать 9" xmlns="http://www.w3.org/2000/svg" width="42" height="42" viewBox="0 0 42 42">
  <path id="Контур_39" data-name="Контур 39" d="M0,0H42V42H0Z" fill="none"/>
  <path id="Контур_40" data-name="Контур 40" d="M36.718,27.219l2.337,1.338a.907.907,0,0,1,0,1.593L22,39.919a2.024,2.024,0,0,1-2,0L2.945,30.15a.907.907,0,0,1,0-1.593l2.337-1.338,15.718,9Zm0-8.725,2.337,1.338a.907.907,0,0,1,0,1.593L21,31.767,2.945,21.425a.907.907,0,0,1,0-1.593l2.337-1.338L21,27.5ZM22,1.431,39.055,11.2a.907.907,0,0,1,0,1.593L21,23.135,2.945,12.793a.907.907,0,0,1,0-1.593L20,1.431a2.024,2.024,0,0,1,2,0ZM21,5.187,9.113,12,21,18.806,32.887,12Z" transform="translate(0 0)" fill="#c00"/>
</svg>
