<svg id="Сгруппировать_10" data-name="Сгруппировать 10" xmlns="http://www.w3.org/2000/svg" width="42" height="42" viewBox="0 0 42 42">
  <path id="Контур_41" data-name="Контур 41" d="M0,0H42V42H0Z" fill="none"/>
  <path id="Контур_42" data-name="Контур 42" d="M28.021,22.615l12.943,7.613L35.438,31.82l3.95,6.9-3.219,1.874-3.95-6.9-4.132,4.029ZM24.3,9.5h3.717v3.748h9.293a1.866,1.866,0,0,1,1.859,1.874v7.5H35.455V16.993H16.869V35.734H24.3v3.748H15.01a1.866,1.866,0,0,1-1.859-1.874v-9.37H9.434V24.489h3.717v-9.37a1.866,1.866,0,0,1,1.859-1.874H24.3ZM5.717,24.489v3.748H2V24.489Zm0-7.5v3.748H2V16.993Zm0-7.5v3.748H2V9.5Zm0-7.5V5.748H2V2Zm7.434,0V5.748H9.434V2Zm7.434,0V5.748H16.869V2Zm7.434,0V5.748H24.3V2Z" transform="translate(0)" fill="#c00"/>
</svg>
