<svg id="Сгруппировать_48" data-name="Сгруппировать 48" xmlns="http://www.w3.org/2000/svg" width="14" height="14" viewBox="0 0 14 14">
  <path id="Контур_87" data-name="Контур 87" d="M0,0H14V14H0Z" fill="none"/>
  <path id="Контур_88" data-name="Контур 88" d="M3.165,5.5h9.321v7.573a.583.583,0,0,1-.583.583H3.748a.583.583,0,0,1-.583-.583ZM4.33,6.66v5.825h6.99V6.66ZM6.078,7.825H7.243v3.5H6.078Zm2.33,0H9.573v3.5H8.408Zm-3.5-4.078V2.583A.583.583,0,0,1,5.5,2h4.66a.583.583,0,0,1,.583.583V3.748h2.913V4.913H2V3.748Zm1.165-.583v.583h3.5V3.165Z" transform="translate(-0.825 -0.825)" fill="#fff"/>
</svg>
