<?xml version="1.0" encoding="iso-8859-1"?>
<!-- Generator: Adobe Illustrator 16.0.0, SVG Export Plug-In . SVG Version: 6.00 Build 0)  -->
<!DOCTYPE svg PUBLIC "-//W3C//DTD SVG 1.1//EN" "http://www.w3.org/Graphics/SVG/1.1/DTD/svg11.dtd">
<svg version="1.1" id="Capa_1" xmlns="http://www.w3.org/2000/svg" xmlns:xlink="http://www.w3.org/1999/xlink" x="0px" y="0px"
	 width="612px" height="612px" viewBox="0 0 612 612" style="enable-background:new 0 0 612 612;" xml:space="preserve">
<g>
	<g id="_x36_">
		<g>
			<path d="M260.655,351.173c-3.615-4.016-8.721-6.636-14.554-6.655l-164.915-0.229c-10.92-0.019-19.756,8.816-19.737,19.737
				c0.019,10.92,12.756,23.198,18.226,28.668l41.711,41.712L0,554.625L57.375,612l119.608-121.979l41.711,41.712
				c9.027,9.027,18.188,18.628,29.108,18.646c10.92,0.02,19.756-8.816,19.737-19.736l-0.229-164.915
				C267.291,359.895,264.671,354.788,260.655,351.173z M493.119,175.472L612,57.375L554.625,0L436.566,118.556l-42.419-42.687
				c-9.181-9.238-18.494-19.068-29.587-19.087c-11.111-0.019-20.081,9.027-20.081,20.196l0.229,168.797
				c0,5.967,2.678,11.188,6.771,14.898c3.69,4.112,8.874,6.789,14.803,6.809l167.726,0.229c11.093,0.019,20.082-9.027,20.082-20.196
				c-0.02-11.169-12.967-23.753-18.532-29.338L493.119,175.472z"/>
		</g>
	</g>
</g>
<g>
</g>
<g>
</g>
<g>
</g>
<g>
</g>
<g>
</g>
<g>
</g>
<g>
</g>
<g>
</g>
<g>
</g>
<g>
</g>
<g>
</g>
<g>
</g>
<g>
</g>
<g>
</g>
<g>
</g>
</svg>
