<?xml version="1.0" encoding="iso-8859-1"?>
<!-- Generator: Adobe Illustrator 16.0.0, SVG Export Plug-In . SVG Version: 6.00 Build 0)  -->
<!DOCTYPE svg PUBLIC "-//W3C//DTD SVG 1.1//EN" "http://www.w3.org/Graphics/SVG/1.1/DTD/svg11.dtd">
<svg version="1.1" id="Capa_1" xmlns="http://www.w3.org/2000/svg" xmlns:xlink="http://www.w3.org/1999/xlink" x="0px" y="0px"
	 width="612.363px" height="612.363px" viewBox="0 0 612.363 612.363" style="enable-background:new 0 0 612.363 612.363;"
	 xml:space="preserve">
<g>
	<g id="_x35_">
		<g>
			<path d="M210.498,344.459L90.804,466.526l-41.742-41.742c-9.034-9.033-18.201-18.641-29.129-18.66
				c-10.928-0.019-19.77,8.823-19.751,19.751l0.229,165.034c0,5.837,2.641,10.928,6.661,14.564c3.636,4.019,8.746,6.641,14.564,6.66
				l165.053,0.229c10.928,0.02,19.77-8.823,19.751-19.751c-0.019-10.929-12.766-23.216-18.239-28.689l-41.742-41.741
				l121.455-120.307L210.498,344.459z M611.952,21.952c0-5.972-2.68-11.196-6.775-14.909c-3.693-4.115-8.88-6.794-14.813-6.813
				L422.536,0c-11.101-0.02-20.096,9.033-20.096,20.21c0.019,11.177,12.976,23.77,18.545,29.359l42.45,42.718L344.469,210.469
				l57.416,57.416l118.144-118.641l42.45,42.718c9.187,9.244,18.507,19.082,29.607,19.101c11.12,0.019,20.096-9.034,20.096-20.21
				L611.952,21.952z"/>
		</g>
	</g>
</g>
<g>
</g>
<g>
</g>
<g>
</g>
<g>
</g>
<g>
</g>
<g>
</g>
<g>
</g>
<g>
</g>
<g>
</g>
<g>
</g>
<g>
</g>
<g>
</g>
<g>
</g>
<g>
</g>
<g>
</g>
</svg>
