<svg id="Group_258" data-name="Group 258" xmlns="http://www.w3.org/2000/svg" width="24" height="24" viewBox="0 0 24 24">
  <path id="Path_165" data-name="Path 165" d="M0,0H24V24H0Z" fill="none"/>
  <path id="Path_166" data-name="Path 166" d="M5,12.5c0,.313.461.858,1.53,1.393A12.665,12.665,0,0,0,12,15a12.665,12.665,0,0,0,5.47-1.107C18.539,13.358,19,12.813,19,12.5V10.329A13.762,13.762,0,0,1,12,12a13.773,13.773,0,0,1-7-1.671Zm14,2.829A13.762,13.762,0,0,1,12,17a13.773,13.773,0,0,1-7-1.671V17.5c0,.313.461.858,1.53,1.393A12.665,12.665,0,0,0,12,20a12.665,12.665,0,0,0,5.47-1.107C18.539,18.358,19,17.813,19,17.5ZM3,17.5V7.5C3,5.015,7.03,3,12,3s9,2.015,9,4.5v10c0,2.485-4.03,4.5-9,4.5S3,19.985,3,17.5ZM12,10a12.665,12.665,0,0,0,5.47-1.107C18.539,8.358,19,7.813,19,7.5s-.461-.858-1.53-1.393A12.665,12.665,0,0,0,12,5,12.665,12.665,0,0,0,6.53,6.107C5.461,6.642,5,7.187,5,7.5s.461.858,1.53,1.393A12.665,12.665,0,0,0,12,10Z" fill="#fff"/>
</svg>
