<svg id="Сгруппировать_145" data-name="Сгруппировать 145" xmlns="http://www.w3.org/2000/svg" width="21" height="21" viewBox="0 0 21 21">
  <path id="Контур_129" data-name="Контур 129" d="M0,0H21V21H0Z" fill="none"/>
  <path id="Контур_130" data-name="Контур 130" d="M4.926,3.236a2.893,2.893,0,0,1,3.516,4.1l8.851,8.852-1.169,1.169L7.273,8.506a2.894,2.894,0,0,1-4.1-3.517L5.021,6.838A1.24,1.24,0,1,0,6.774,5.085L4.926,3.235Zm8.568,1.557,2.63-1.461L17.293,4.5,15.832,7.13l-1.461.293L12.618,9.176,11.449,8.007,13.2,6.254l.293-1.461ZM7.942,11.514l1.169,1.169L4.728,17.065a.826.826,0,0,1-1.233-1.1L3.56,15.9l4.383-4.383Z" transform="translate(0)" fill="#fff"/>
</svg>
