<svg id="Сгруппировать_233" data-name="Сгруппировать 233" xmlns="http://www.w3.org/2000/svg" width="22" height="22" viewBox="0 0 22 22">
  <path id="Контур_146" data-name="Контур 146" d="M0,0H22V22H0Z" fill="none"/>
  <path id="Контур_147" data-name="Контур 147" d="M3.87,18.2V12.8a7.13,7.13,0,1,1,14.259,0v5.4h.891V20H2.979V18.2Zm1.782,0H16.347V12.8a5.348,5.348,0,1,0-10.695,0ZM10.109,2h1.782V4.7H10.109Zm7.823,2.527L19.192,5.8,17.3,7.709,16.042,6.436ZM2.808,5.8l1.26-1.273,1.89,1.908L4.7,7.71Zm3.736,7A4.478,4.478,0,0,1,11,8.3v1.8a2.687,2.687,0,0,0-2.674,2.7Z" transform="translate(0 0)" fill="#fff"/>
</svg>
