<svg id="Сгруппировать_12" data-name="Сгруппировать 12" xmlns="http://www.w3.org/2000/svg" width="42" height="42" viewBox="0 0 42 42">
  <path id="Контур_45" data-name="Контур 45" d="M0,0H42V42H0Z" fill="none"/>
  <path id="Контур_46" data-name="Контур 46" d="M3.9,3H38.1A1.952,1.952,0,0,1,40,5V37a1.952,1.952,0,0,1-1.9,2H3.9A1.952,1.952,0,0,1,2,37V5A1.952,1.952,0,0,1,3.9,3ZM5.8,7V35H36.2V7Zm8.55,18H24.8a1,1,0,0,0,0-2H17.2a4.88,4.88,0,0,1-4.75-5,4.88,4.88,0,0,1,4.75-5h1.9V9h3.8v4h4.75v4H17.2a1,1,0,0,0,0,2h7.6a4.88,4.88,0,0,1,4.75,5,4.88,4.88,0,0,1-4.75,5H22.9v4H19.1V29H14.35Z" fill="#c00"/>
</svg>
