<svg xmlns="http://www.w3.org/2000/svg" width="19" height="19" viewBox="0 0 19 19">
  <!-- <path id="Path_160" data-name="Path 160" d="M6.75,2.5A4.25,4.25,0,0,1,11,6.75V11H6.75a4.25,4.25,0,1,1,0-8.5ZM9,9V6.75A2.25,2.25,0,1,0,6.75,9ZM6.75,13H11v4.25A4.25,4.25,0,1,1,6.75,13Zm0,2A2.25,2.25,0,1,0,9,17.25V15ZM17.25,2.5a4.25,4.25,0,1,1,0,8.5H13V6.75A4.25,4.25,0,0,1,17.25,2.5Zm0,6.5A2.25,2.25,0,1,0,15,6.75V9ZM13,13h4.25A4.25,4.25,0,1,1,13,17.25Zm2,2v2.25A2.25,2.25,0,1,0,17.25,15Z" transform="translate(-2.5 -2.5)" fill="#fff"/> -->
  <path id="Path_159" data-name="Path 159" d="M0,0H24V24H0Z" fill="none"/>
  <path id="Path_160" data-name="Path 160" d="M6.75,2.5A4.25,4.25,0,0,1,11,6.75V11H6.75a4.25,4.25,0,1,1,0-8.5ZM9,9V6.75A2.25,2.25,0,1,0,6.75,9ZM6.75,13H11v4.25A4.25,4.25,0,1,1,6.75,13Zm0,2A2.25,2.25,0,1,0,9,17.25V15ZM17.25,2.5a4.25,4.25,0,1,1,0,8.5H13V6.75A4.25,4.25,0,0,1,17.25,2.5Zm0,6.5A2.25,2.25,0,1,0,15,6.75V9ZM13,13h4.25A4.25,4.25,0,1,1,13,17.25Zm2,2v2.25A2.25,2.25,0,1,0,17.25,15Z" transform="translate(-2.5 -2.5)"  fill="#333333"/>

</svg>
